<svg width="54" height="55" viewBox="0 0 54 55" fill="none" xmlns="http://www.w3.org/2000/svg">
<mask id="path-1-outside-1_1_1677" maskUnits="userSpaceOnUse" x="-1" y="-6.10352e-05" width="56" height="55" fill="black">
<rect fill="white" x="-1" y="-6.10352e-05" width="56" height="55"/>
<path fill-rule="evenodd" clip-rule="evenodd" d="M27.5461 1.43334L28.2048 4.46712C28.2915 4.86585 28.6209 5.14322 29.037 5.19523C29.4357 5.2299 29.8171 5.00454 29.9731 4.62315L31.1866 1.78006C31.2906 1.53735 31.5333 1.39867 31.7934 1.45067C32.0534 1.50268 32.2441 1.71071 32.2615 1.97075L32.3481 5.07388C32.3655 5.48994 32.6255 5.81932 33.0242 5.94067C33.423 6.04469 33.8217 5.906 34.0471 5.55928L35.7633 2.97623C35.9193 2.75087 36.1794 2.66419 36.4394 2.7682C36.6821 2.85488 36.8208 3.11492 36.7861 3.37496L36.3181 6.42608C36.2487 6.84214 36.4394 7.22353 36.8208 7.39689C37.1849 7.58759 37.6009 7.51824 37.8956 7.22353L40.0626 5.00454C40.236 4.81384 40.5307 4.77917 40.7387 4.91786C40.9641 5.05654 41.0681 5.31658 40.9814 5.57662L39.9586 8.48905C39.8199 8.88778 39.9413 9.28651 40.2706 9.54655C40.6 9.78925 41.0334 9.78925 41.3628 9.56388L43.8939 7.77828C44.1192 7.62226 44.3966 7.63959 44.5873 7.81295C44.7953 7.98631 44.83 8.28102 44.6913 8.50639L43.1484 11.1935C42.9404 11.5402 42.9924 11.9736 43.2698 12.2856C43.5471 12.5803 43.9805 12.667 44.3446 12.4937L47.1703 11.2108C47.3957 11.0894 47.6731 11.1588 47.8464 11.3842C48.0025 11.5922 47.9851 11.8696 47.8118 12.0776L45.8008 14.4353C45.5408 14.7473 45.5061 15.1807 45.7141 15.5274C45.9395 15.8742 46.3382 16.0302 46.7369 15.9262L49.7361 15.1807C49.9961 15.1114 50.2561 15.2327 50.3775 15.4754C50.4988 15.7181 50.4295 15.9955 50.2215 16.1515L47.8118 18.0932C47.4997 18.3532 47.3784 18.7693 47.5344 19.168C47.6731 19.5494 48.0371 19.7747 48.4532 19.7574L51.539 19.5667C51.8164 19.5494 52.0417 19.7054 52.1111 19.9654C52.1804 20.2255 52.0764 20.4855 51.851 20.6069L49.112 22.0804C48.7479 22.2711 48.5745 22.6698 48.6439 23.0686C48.7132 23.4673 49.0253 23.762 49.4413 23.814L52.5098 24.1954C52.7698 24.2301 52.9779 24.4381 52.9952 24.6981C53.0299 24.9755 52.8739 25.2009 52.6138 25.2876L49.6667 26.2237C49.268 26.3624 49.0253 26.7091 49.0253 27.1078C49.0253 27.5239 49.268 27.8706 49.6667 27.992L52.6138 28.9454C52.8739 29.0148 53.0299 29.2575 52.9952 29.5175C52.9779 29.7776 52.7698 29.9856 52.5098 30.0203L49.4413 30.4017C49.0253 30.4537 48.7132 30.7484 48.6439 31.1644C48.5745 31.5632 48.7479 31.9445 49.112 32.1526L51.851 33.6088C52.0764 33.7475 52.1804 34.0075 52.1111 34.2676C52.0417 34.5103 51.8164 34.6836 51.539 34.6663L48.4532 34.4756C48.0371 34.4583 47.6731 34.6836 47.5344 35.065C47.3784 35.4464 47.4997 35.8625 47.8118 36.1225L50.2215 38.0641C50.4295 38.2375 50.4988 38.5149 50.3775 38.7576C50.2561 38.9829 49.9961 39.1043 49.7361 39.0523L46.7369 38.2895C46.3382 38.1855 45.9395 38.3588 45.7141 38.7056C45.5061 39.0523 45.5408 39.4857 45.8008 39.7977L47.8118 42.1554C47.9851 42.3461 48.0025 42.6408 47.8464 42.8488C47.6731 43.0569 47.3957 43.1262 47.1703 43.0222L44.3446 41.722C43.9805 41.566 43.5471 41.6527 43.2698 41.9474C42.9924 42.2421 42.9404 42.6755 43.1484 43.0395L44.6913 45.7266C44.83 45.952 44.7953 46.2293 44.5873 46.4027C44.3966 46.5934 44.1192 46.6107 43.8939 46.4547L41.3628 44.6691C41.0334 44.4264 40.6 44.4437 40.2706 44.6864C39.9413 44.9291 39.8199 45.3452 39.9586 45.7266L40.9814 48.6564C41.0681 48.8991 40.9641 49.1764 40.7387 49.3151C40.5133 49.4538 40.236 49.4192 40.0626 49.2285L37.8956 47.0095C37.6009 46.7147 37.1849 46.6454 36.8208 46.8188C36.4394 47.0095 36.2487 47.3909 36.3181 47.7896L36.7861 50.858C36.8208 51.1181 36.6821 51.3608 36.4394 51.4648C36.1794 51.5515 35.9193 51.4648 35.7633 51.2568L34.0471 48.6737C33.8217 48.327 33.423 48.171 33.0242 48.2923C32.6255 48.3963 32.3655 48.743 32.3481 49.1591L32.2615 52.2449C32.2441 52.5223 32.0534 52.7303 31.7934 52.7823C31.5333 52.8343 31.2906 52.6956 31.1866 52.4529L29.9731 49.5925C29.8171 49.2285 29.4357 49.0031 29.037 49.0378C28.6209 49.0724 28.2915 49.3671 28.2048 49.7659L27.5461 52.7823C27.4941 53.0424 27.2687 53.2331 27.0087 53.2331C26.7313 53.2331 26.5059 53.0424 26.4539 52.7823L25.7952 49.7659C25.7085 49.3671 25.3791 49.0724 24.963 49.0378C24.5643 49.0031 24.1829 49.2285 24.0269 49.5925L22.8134 52.4529C22.7094 52.6956 22.4667 52.8343 22.2066 52.7823C21.9466 52.7303 21.7559 52.5223 21.7559 52.2449L21.6519 49.1591C21.6345 48.743 21.3745 48.3963 20.9758 48.2923C20.577 48.171 20.1783 48.327 19.953 48.6737L18.2367 51.2568C18.0807 51.4648 17.8206 51.5515 17.5606 51.4648C17.3179 51.3608 17.1792 51.1181 17.2139 50.858L17.6819 47.7896C17.7513 47.3909 17.5606 47.0095 17.1792 46.8188C16.8152 46.6454 16.3991 46.7147 16.1044 47.0095L13.9547 49.2285C13.764 49.4192 13.4867 49.4538 13.2613 49.3151C13.0359 49.1764 12.9319 48.8991 13.0186 48.6564L14.0414 45.7266C14.1801 45.3452 14.0587 44.9291 13.7294 44.6864C13.4 44.4437 12.9666 44.4264 12.6372 44.6691L10.1062 46.4547C9.88078 46.6107 9.60341 46.5934 9.41271 46.4027C9.20468 46.2293 9.17001 45.952 9.3087 45.7266L10.8516 43.0395C11.0596 42.6755 11.0076 42.2594 10.7302 41.9474C10.4529 41.6527 10.0368 41.566 9.65542 41.722L6.847 43.0222C6.6043 43.1262 6.32692 43.0569 6.15356 42.8488C5.99754 42.6408 6.01487 42.3461 6.18823 42.1554L8.1992 39.7977C8.45924 39.4857 8.49391 39.0523 8.28588 38.7056C8.06051 38.3588 7.66179 38.1855 7.26306 38.2895L4.26395 39.0523C4.00391 39.1043 3.74387 38.9829 3.62252 38.7576C3.50117 38.5149 3.57051 38.2375 3.77854 38.0641L6.18823 36.1225C6.50028 35.8625 6.62163 35.4464 6.46561 35.065C6.32692 34.6836 5.96287 34.4583 5.54681 34.4756L2.46101 34.6663C2.18364 34.6836 1.95827 34.5103 1.88893 34.2676C1.81958 34.0075 1.9236 33.7475 2.14897 33.6088L4.88804 32.1526C5.25209 31.9445 5.42545 31.5632 5.35611 31.1644C5.28677 30.7484 4.97472 30.4537 4.55866 30.4017L1.4902 30.0203C1.23016 29.9856 1.02213 29.7776 1.0048 29.5175C0.970123 29.2575 1.12615 29.0148 1.38619 28.9454L4.33329 27.992C4.73202 27.8706 4.97472 27.5239 4.97472 27.1078C4.97472 26.7091 4.73202 26.3624 4.33329 26.2237L1.38619 25.2876C1.12615 25.2009 0.970123 24.9755 1.0048 24.6981C1.02213 24.4381 1.23016 24.2301 1.4902 24.1954L4.55866 23.814C4.97472 23.762 5.28677 23.4673 5.35611 23.0686C5.42545 22.6698 5.25209 22.2711 4.88804 22.0804L2.14897 20.6069C1.9236 20.4855 1.81958 20.2255 1.88893 19.9654C1.95827 19.7054 2.18364 19.5494 2.46101 19.5667L5.54681 19.7574C5.96287 19.7747 6.32692 19.5494 6.46561 19.168C6.62163 18.7693 6.50028 18.3532 6.18823 18.0932L3.77854 16.1515C3.57051 15.9955 3.50117 15.7181 3.62252 15.4754C3.74387 15.2327 4.00391 15.1114 4.26395 15.1807L7.26306 15.9262C7.66179 16.0302 8.06051 15.8742 8.28588 15.5274C8.49391 15.1807 8.45924 14.7473 8.1992 14.4353L6.18823 12.0776C6.01487 11.8696 5.99754 11.5922 6.15356 11.3842C6.32692 11.1588 6.6043 11.0894 6.847 11.2108L9.65542 12.4937C10.0368 12.667 10.4529 12.5803 10.7302 12.2856C11.0076 11.9736 11.0596 11.5402 10.8516 11.1935L9.3087 8.50639C9.17001 8.28102 9.20468 7.98631 9.41271 7.81295C9.60341 7.63959 9.88078 7.62226 10.1062 7.77828L12.6372 9.56388C12.9666 9.78925 13.4 9.78925 13.7294 9.54655C14.0587 9.28651 14.1801 8.88778 14.0414 8.48905L13.0186 5.57662C12.9319 5.31658 13.0359 5.05654 13.2613 4.91786C13.4867 4.77917 13.764 4.81384 13.9374 5.00454L16.1044 7.22353C16.3991 7.51824 16.8152 7.58759 17.1792 7.39689C17.5606 7.22353 17.7513 6.84214 17.6819 6.42608L17.2139 3.37496C17.1792 3.11492 17.3179 2.85488 17.5606 2.7682C17.8206 2.66419 18.0807 2.75087 18.2367 2.97623L19.953 5.55928C20.1783 5.906 20.577 6.04469 20.9758 5.94067C21.3745 5.81932 21.6345 5.48994 21.6519 5.07388L21.7559 1.97075C21.7559 1.71071 21.9466 1.50268 22.2066 1.45067C22.4667 1.39867 22.7094 1.53735 22.8134 1.78006L24.0269 4.62315C24.1829 5.00454 24.5643 5.2299 24.963 5.19523C25.3791 5.14322 25.7085 4.86585 25.7952 4.46712L26.4539 1.43334C26.5059 1.1733 26.7313 0.999939 27.0087 0.999939C27.2687 0.999939 27.4941 1.1733 27.5461 1.43334Z"/>
</mask>
<path fill-rule="evenodd" clip-rule="evenodd" d="M27.5461 1.43334L28.2048 4.46712C28.2915 4.86585 28.6209 5.14322 29.037 5.19523C29.4357 5.2299 29.8171 5.00454 29.9731 4.62315L31.1866 1.78006C31.2906 1.53735 31.5333 1.39867 31.7934 1.45067C32.0534 1.50268 32.2441 1.71071 32.2615 1.97075L32.3481 5.07388C32.3655 5.48994 32.6255 5.81932 33.0242 5.94067C33.423 6.04469 33.8217 5.906 34.0471 5.55928L35.7633 2.97623C35.9193 2.75087 36.1794 2.66419 36.4394 2.7682C36.6821 2.85488 36.8208 3.11492 36.7861 3.37496L36.3181 6.42608C36.2487 6.84214 36.4394 7.22353 36.8208 7.39689C37.1849 7.58759 37.6009 7.51824 37.8956 7.22353L40.0626 5.00454C40.236 4.81384 40.5307 4.77917 40.7387 4.91786C40.9641 5.05654 41.0681 5.31658 40.9814 5.57662L39.9586 8.48905C39.8199 8.88778 39.9413 9.28651 40.2706 9.54655C40.6 9.78925 41.0334 9.78925 41.3628 9.56388L43.8939 7.77828C44.1192 7.62226 44.3966 7.63959 44.5873 7.81295C44.7953 7.98631 44.83 8.28102 44.6913 8.50639L43.1484 11.1935C42.9404 11.5402 42.9924 11.9736 43.2698 12.2856C43.5471 12.5803 43.9805 12.667 44.3446 12.4937L47.1703 11.2108C47.3957 11.0894 47.6731 11.1588 47.8464 11.3842C48.0025 11.5922 47.9851 11.8696 47.8118 12.0776L45.8008 14.4353C45.5408 14.7473 45.5061 15.1807 45.7141 15.5274C45.9395 15.8742 46.3382 16.0302 46.7369 15.9262L49.7361 15.1807C49.9961 15.1114 50.2561 15.2327 50.3775 15.4754C50.4988 15.7181 50.4295 15.9955 50.2215 16.1515L47.8118 18.0932C47.4997 18.3532 47.3784 18.7693 47.5344 19.168C47.6731 19.5494 48.0371 19.7747 48.4532 19.7574L51.539 19.5667C51.8164 19.5494 52.0417 19.7054 52.1111 19.9654C52.1804 20.2255 52.0764 20.4855 51.851 20.6069L49.112 22.0804C48.7479 22.2711 48.5745 22.6698 48.6439 23.0686C48.7132 23.4673 49.0253 23.762 49.4413 23.814L52.5098 24.1954C52.7698 24.2301 52.9779 24.4381 52.9952 24.6981C53.0299 24.9755 52.8739 25.2009 52.6138 25.2876L49.6667 26.2237C49.268 26.3624 49.0253 26.7091 49.0253 27.1078C49.0253 27.5239 49.268 27.8706 49.6667 27.992L52.6138 28.9454C52.8739 29.0148 53.0299 29.2575 52.9952 29.5175C52.9779 29.7776 52.7698 29.9856 52.5098 30.0203L49.4413 30.4017C49.0253 30.4537 48.7132 30.7484 48.6439 31.1644C48.5745 31.5632 48.7479 31.9445 49.112 32.1526L51.851 33.6088C52.0764 33.7475 52.1804 34.0075 52.1111 34.2676C52.0417 34.5103 51.8164 34.6836 51.539 34.6663L48.4532 34.4756C48.0371 34.4583 47.6731 34.6836 47.5344 35.065C47.3784 35.4464 47.4997 35.8625 47.8118 36.1225L50.2215 38.0641C50.4295 38.2375 50.4988 38.5149 50.3775 38.7576C50.2561 38.9829 49.9961 39.1043 49.7361 39.0523L46.7369 38.2895C46.3382 38.1855 45.9395 38.3588 45.7141 38.7056C45.5061 39.0523 45.5408 39.4857 45.8008 39.7977L47.8118 42.1554C47.9851 42.3461 48.0025 42.6408 47.8464 42.8488C47.6731 43.0569 47.3957 43.1262 47.1703 43.0222L44.3446 41.722C43.9805 41.566 43.5471 41.6527 43.2698 41.9474C42.9924 42.2421 42.9404 42.6755 43.1484 43.0395L44.6913 45.7266C44.83 45.952 44.7953 46.2293 44.5873 46.4027C44.3966 46.5934 44.1192 46.6107 43.8939 46.4547L41.3628 44.6691C41.0334 44.4264 40.6 44.4437 40.2706 44.6864C39.9413 44.9291 39.8199 45.3452 39.9586 45.7266L40.9814 48.6564C41.0681 48.8991 40.9641 49.1764 40.7387 49.3151C40.5133 49.4538 40.236 49.4192 40.0626 49.2285L37.8956 47.0095C37.6009 46.7147 37.1849 46.6454 36.8208 46.8188C36.4394 47.0095 36.2487 47.3909 36.3181 47.7896L36.7861 50.858C36.8208 51.1181 36.6821 51.3608 36.4394 51.4648C36.1794 51.5515 35.9193 51.4648 35.7633 51.2568L34.0471 48.6737C33.8217 48.327 33.423 48.171 33.0242 48.2923C32.6255 48.3963 32.3655 48.743 32.3481 49.1591L32.2615 52.2449C32.2441 52.5223 32.0534 52.7303 31.7934 52.7823C31.5333 52.8343 31.2906 52.6956 31.1866 52.4529L29.9731 49.5925C29.8171 49.2285 29.4357 49.0031 29.037 49.0378C28.6209 49.0724 28.2915 49.3671 28.2048 49.7659L27.5461 52.7823C27.4941 53.0424 27.2687 53.2331 27.0087 53.2331C26.7313 53.2331 26.5059 53.0424 26.4539 52.7823L25.7952 49.7659C25.7085 49.3671 25.3791 49.0724 24.963 49.0378C24.5643 49.0031 24.1829 49.2285 24.0269 49.5925L22.8134 52.4529C22.7094 52.6956 22.4667 52.8343 22.2066 52.7823C21.9466 52.7303 21.7559 52.5223 21.7559 52.2449L21.6519 49.1591C21.6345 48.743 21.3745 48.3963 20.9758 48.2923C20.577 48.171 20.1783 48.327 19.953 48.6737L18.2367 51.2568C18.0807 51.4648 17.8206 51.5515 17.5606 51.4648C17.3179 51.3608 17.1792 51.1181 17.2139 50.858L17.6819 47.7896C17.7513 47.3909 17.5606 47.0095 17.1792 46.8188C16.8152 46.6454 16.3991 46.7147 16.1044 47.0095L13.9547 49.2285C13.764 49.4192 13.4867 49.4538 13.2613 49.3151C13.0359 49.1764 12.9319 48.8991 13.0186 48.6564L14.0414 45.7266C14.1801 45.3452 14.0587 44.9291 13.7294 44.6864C13.4 44.4437 12.9666 44.4264 12.6372 44.6691L10.1062 46.4547C9.88078 46.6107 9.60341 46.5934 9.41271 46.4027C9.20468 46.2293 9.17001 45.952 9.3087 45.7266L10.8516 43.0395C11.0596 42.6755 11.0076 42.2594 10.7302 41.9474C10.4529 41.6527 10.0368 41.566 9.65542 41.722L6.847 43.0222C6.6043 43.1262 6.32692 43.0569 6.15356 42.8488C5.99754 42.6408 6.01487 42.3461 6.18823 42.1554L8.1992 39.7977C8.45924 39.4857 8.49391 39.0523 8.28588 38.7056C8.06051 38.3588 7.66179 38.1855 7.26306 38.2895L4.26395 39.0523C4.00391 39.1043 3.74387 38.9829 3.62252 38.7576C3.50117 38.5149 3.57051 38.2375 3.77854 38.0641L6.18823 36.1225C6.50028 35.8625 6.62163 35.4464 6.46561 35.065C6.32692 34.6836 5.96287 34.4583 5.54681 34.4756L2.46101 34.6663C2.18364 34.6836 1.95827 34.5103 1.88893 34.2676C1.81958 34.0075 1.9236 33.7475 2.14897 33.6088L4.88804 32.1526C5.25209 31.9445 5.42545 31.5632 5.35611 31.1644C5.28677 30.7484 4.97472 30.4537 4.55866 30.4017L1.4902 30.0203C1.23016 29.9856 1.02213 29.7776 1.0048 29.5175C0.970123 29.2575 1.12615 29.0148 1.38619 28.9454L4.33329 27.992C4.73202 27.8706 4.97472 27.5239 4.97472 27.1078C4.97472 26.7091 4.73202 26.3624 4.33329 26.2237L1.38619 25.2876C1.12615 25.2009 0.970123 24.9755 1.0048 24.6981C1.02213 24.4381 1.23016 24.2301 1.4902 24.1954L4.55866 23.814C4.97472 23.762 5.28677 23.4673 5.35611 23.0686C5.42545 22.6698 5.25209 22.2711 4.88804 22.0804L2.14897 20.6069C1.9236 20.4855 1.81958 20.2255 1.88893 19.9654C1.95827 19.7054 2.18364 19.5494 2.46101 19.5667L5.54681 19.7574C5.96287 19.7747 6.32692 19.5494 6.46561 19.168C6.62163 18.7693 6.50028 18.3532 6.18823 18.0932L3.77854 16.1515C3.57051 15.9955 3.50117 15.7181 3.62252 15.4754C3.74387 15.2327 4.00391 15.1114 4.26395 15.1807L7.26306 15.9262C7.66179 16.0302 8.06051 15.8742 8.28588 15.5274C8.49391 15.1807 8.45924 14.7473 8.1992 14.4353L6.18823 12.0776C6.01487 11.8696 5.99754 11.5922 6.15356 11.3842C6.32692 11.1588 6.6043 11.0894 6.847 11.2108L9.65542 12.4937C10.0368 12.667 10.4529 12.5803 10.7302 12.2856C11.0076 11.9736 11.0596 11.5402 10.8516 11.1935L9.3087 8.50639C9.17001 8.28102 9.20468 7.98631 9.41271 7.81295C9.60341 7.63959 9.88078 7.62226 10.1062 7.77828L12.6372 9.56388C12.9666 9.78925 13.4 9.78925 13.7294 9.54655C14.0587 9.28651 14.1801 8.88778 14.0414 8.48905L13.0186 5.57662C12.9319 5.31658 13.0359 5.05654 13.2613 4.91786C13.4867 4.77917 13.764 4.81384 13.9374 5.00454L16.1044 7.22353C16.3991 7.51824 16.8152 7.58759 17.1792 7.39689C17.5606 7.22353 17.7513 6.84214 17.6819 6.42608L17.2139 3.37496C17.1792 3.11492 17.3179 2.85488 17.5606 2.7682C17.8206 2.66419 18.0807 2.75087 18.2367 2.97623L19.953 5.55928C20.1783 5.906 20.577 6.04469 20.9758 5.94067C21.3745 5.81932 21.6345 5.48994 21.6519 5.07388L21.7559 1.97075C21.7559 1.71071 21.9466 1.50268 22.2066 1.45067C22.4667 1.39867 22.7094 1.53735 22.8134 1.78006L24.0269 4.62315C24.1829 5.00454 24.5643 5.2299 24.963 5.19523C25.3791 5.14322 25.7085 4.86585 25.7952 4.46712L26.4539 1.43334C26.5059 1.1733 26.7313 0.999939 27.0087 0.999939C27.2687 0.999939 27.4941 1.1733 27.5461 1.43334Z" fill="#8EED00"/>
<path fill-rule="evenodd" clip-rule="evenodd" d="M27.5461 1.43334L28.2048 4.46712C28.2915 4.86585 28.6209 5.14322 29.037 5.19523C29.4357 5.2299 29.8171 5.00454 29.9731 4.62315L31.1866 1.78006C31.2906 1.53735 31.5333 1.39867 31.7934 1.45067C32.0534 1.50268 32.2441 1.71071 32.2615 1.97075L32.3481 5.07388C32.3655 5.48994 32.6255 5.81932 33.0242 5.94067C33.423 6.04469 33.8217 5.906 34.0471 5.55928L35.7633 2.97623C35.9193 2.75087 36.1794 2.66419 36.4394 2.7682C36.6821 2.85488 36.8208 3.11492 36.7861 3.37496L36.3181 6.42608C36.2487 6.84214 36.4394 7.22353 36.8208 7.39689C37.1849 7.58759 37.6009 7.51824 37.8956 7.22353L40.0626 5.00454C40.236 4.81384 40.5307 4.77917 40.7387 4.91786C40.9641 5.05654 41.0681 5.31658 40.9814 5.57662L39.9586 8.48905C39.8199 8.88778 39.9413 9.28651 40.2706 9.54655C40.6 9.78925 41.0334 9.78925 41.3628 9.56388L43.8939 7.77828C44.1192 7.62226 44.3966 7.63959 44.5873 7.81295C44.7953 7.98631 44.83 8.28102 44.6913 8.50639L43.1484 11.1935C42.9404 11.5402 42.9924 11.9736 43.2698 12.2856C43.5471 12.5803 43.9805 12.667 44.3446 12.4937L47.1703 11.2108C47.3957 11.0894 47.6731 11.1588 47.8464 11.3842C48.0025 11.5922 47.9851 11.8696 47.8118 12.0776L45.8008 14.4353C45.5408 14.7473 45.5061 15.1807 45.7141 15.5274C45.9395 15.8742 46.3382 16.0302 46.7369 15.9262L49.7361 15.1807C49.9961 15.1114 50.2561 15.2327 50.3775 15.4754C50.4988 15.7181 50.4295 15.9955 50.2215 16.1515L47.8118 18.0932C47.4997 18.3532 47.3784 18.7693 47.5344 19.168C47.6731 19.5494 48.0371 19.7747 48.4532 19.7574L51.539 19.5667C51.8164 19.5494 52.0417 19.7054 52.1111 19.9654C52.1804 20.2255 52.0764 20.4855 51.851 20.6069L49.112 22.0804C48.7479 22.2711 48.5745 22.6698 48.6439 23.0686C48.7132 23.4673 49.0253 23.762 49.4413 23.814L52.5098 24.1954C52.7698 24.2301 52.9779 24.4381 52.9952 24.6981C53.0299 24.9755 52.8739 25.2009 52.6138 25.2876L49.6667 26.2237C49.268 26.3624 49.0253 26.7091 49.0253 27.1078C49.0253 27.5239 49.268 27.8706 49.6667 27.992L52.6138 28.9454C52.8739 29.0148 53.0299 29.2575 52.9952 29.5175C52.9779 29.7776 52.7698 29.9856 52.5098 30.0203L49.4413 30.4017C49.0253 30.4537 48.7132 30.7484 48.6439 31.1644C48.5745 31.5632 48.7479 31.9445 49.112 32.1526L51.851 33.6088C52.0764 33.7475 52.1804 34.0075 52.1111 34.2676C52.0417 34.5103 51.8164 34.6836 51.539 34.6663L48.4532 34.4756C48.0371 34.4583 47.6731 34.6836 47.5344 35.065C47.3784 35.4464 47.4997 35.8625 47.8118 36.1225L50.2215 38.0641C50.4295 38.2375 50.4988 38.5149 50.3775 38.7576C50.2561 38.9829 49.9961 39.1043 49.7361 39.0523L46.7369 38.2895C46.3382 38.1855 45.9395 38.3588 45.7141 38.7056C45.5061 39.0523 45.5408 39.4857 45.8008 39.7977L47.8118 42.1554C47.9851 42.3461 48.0025 42.6408 47.8464 42.8488C47.6731 43.0569 47.3957 43.1262 47.1703 43.0222L44.3446 41.722C43.9805 41.566 43.5471 41.6527 43.2698 41.9474C42.9924 42.2421 42.9404 42.6755 43.1484 43.0395L44.6913 45.7266C44.83 45.952 44.7953 46.2293 44.5873 46.4027C44.3966 46.5934 44.1192 46.6107 43.8939 46.4547L41.3628 44.6691C41.0334 44.4264 40.6 44.4437 40.2706 44.6864C39.9413 44.9291 39.8199 45.3452 39.9586 45.7266L40.9814 48.6564C41.0681 48.8991 40.9641 49.1764 40.7387 49.3151C40.5133 49.4538 40.236 49.4192 40.0626 49.2285L37.8956 47.0095C37.6009 46.7147 37.1849 46.6454 36.8208 46.8188C36.4394 47.0095 36.2487 47.3909 36.3181 47.7896L36.7861 50.858C36.8208 51.1181 36.6821 51.3608 36.4394 51.4648C36.1794 51.5515 35.9193 51.4648 35.7633 51.2568L34.0471 48.6737C33.8217 48.327 33.423 48.171 33.0242 48.2923C32.6255 48.3963 32.3655 48.743 32.3481 49.1591L32.2615 52.2449C32.2441 52.5223 32.0534 52.7303 31.7934 52.7823C31.5333 52.8343 31.2906 52.6956 31.1866 52.4529L29.9731 49.5925C29.8171 49.2285 29.4357 49.0031 29.037 49.0378C28.6209 49.0724 28.2915 49.3671 28.2048 49.7659L27.5461 52.7823C27.4941 53.0424 27.2687 53.2331 27.0087 53.2331C26.7313 53.2331 26.5059 53.0424 26.4539 52.7823L25.7952 49.7659C25.7085 49.3671 25.3791 49.0724 24.963 49.0378C24.5643 49.0031 24.1829 49.2285 24.0269 49.5925L22.8134 52.4529C22.7094 52.6956 22.4667 52.8343 22.2066 52.7823C21.9466 52.7303 21.7559 52.5223 21.7559 52.2449L21.6519 49.1591C21.6345 48.743 21.3745 48.3963 20.9758 48.2923C20.577 48.171 20.1783 48.327 19.953 48.6737L18.2367 51.2568C18.0807 51.4648 17.8206 51.5515 17.5606 51.4648C17.3179 51.3608 17.1792 51.1181 17.2139 50.858L17.6819 47.7896C17.7513 47.3909 17.5606 47.0095 17.1792 46.8188C16.8152 46.6454 16.3991 46.7147 16.1044 47.0095L13.9547 49.2285C13.764 49.4192 13.4867 49.4538 13.2613 49.3151C13.0359 49.1764 12.9319 48.8991 13.0186 48.6564L14.0414 45.7266C14.1801 45.3452 14.0587 44.9291 13.7294 44.6864C13.4 44.4437 12.9666 44.4264 12.6372 44.6691L10.1062 46.4547C9.88078 46.6107 9.60341 46.5934 9.41271 46.4027C9.20468 46.2293 9.17001 45.952 9.3087 45.7266L10.8516 43.0395C11.0596 42.6755 11.0076 42.2594 10.7302 41.9474C10.4529 41.6527 10.0368 41.566 9.65542 41.722L6.847 43.0222C6.6043 43.1262 6.32692 43.0569 6.15356 42.8488C5.99754 42.6408 6.01487 42.3461 6.18823 42.1554L8.1992 39.7977C8.45924 39.4857 8.49391 39.0523 8.28588 38.7056C8.06051 38.3588 7.66179 38.1855 7.26306 38.2895L4.26395 39.0523C4.00391 39.1043 3.74387 38.9829 3.62252 38.7576C3.50117 38.5149 3.57051 38.2375 3.77854 38.0641L6.18823 36.1225C6.50028 35.8625 6.62163 35.4464 6.46561 35.065C6.32692 34.6836 5.96287 34.4583 5.54681 34.4756L2.46101 34.6663C2.18364 34.6836 1.95827 34.5103 1.88893 34.2676C1.81958 34.0075 1.9236 33.7475 2.14897 33.6088L4.88804 32.1526C5.25209 31.9445 5.42545 31.5632 5.35611 31.1644C5.28677 30.7484 4.97472 30.4537 4.55866 30.4017L1.4902 30.0203C1.23016 29.9856 1.02213 29.7776 1.0048 29.5175C0.970123 29.2575 1.12615 29.0148 1.38619 28.9454L4.33329 27.992C4.73202 27.8706 4.97472 27.5239 4.97472 27.1078C4.97472 26.7091 4.73202 26.3624 4.33329 26.2237L1.38619 25.2876C1.12615 25.2009 0.970123 24.9755 1.0048 24.6981C1.02213 24.4381 1.23016 24.2301 1.4902 24.1954L4.55866 23.814C4.97472 23.762 5.28677 23.4673 5.35611 23.0686C5.42545 22.6698 5.25209 22.2711 4.88804 22.0804L2.14897 20.6069C1.9236 20.4855 1.81958 20.2255 1.88893 19.9654C1.95827 19.7054 2.18364 19.5494 2.46101 19.5667L5.54681 19.7574C5.96287 19.7747 6.32692 19.5494 6.46561 19.168C6.62163 18.7693 6.50028 18.3532 6.18823 18.0932L3.77854 16.1515C3.57051 15.9955 3.50117 15.7181 3.62252 15.4754C3.74387 15.2327 4.00391 15.1114 4.26395 15.1807L7.26306 15.9262C7.66179 16.0302 8.06051 15.8742 8.28588 15.5274C8.49391 15.1807 8.45924 14.7473 8.1992 14.4353L6.18823 12.0776C6.01487 11.8696 5.99754 11.5922 6.15356 11.3842C6.32692 11.1588 6.6043 11.0894 6.847 11.2108L9.65542 12.4937C10.0368 12.667 10.4529 12.5803 10.7302 12.2856C11.0076 11.9736 11.0596 11.5402 10.8516 11.1935L9.3087 8.50639C9.17001 8.28102 9.20468 7.98631 9.41271 7.81295C9.60341 7.63959 9.88078 7.62226 10.1062 7.77828L12.6372 9.56388C12.9666 9.78925 13.4 9.78925 13.7294 9.54655C14.0587 9.28651 14.1801 8.88778 14.0414 8.48905L13.0186 5.57662C12.9319 5.31658 13.0359 5.05654 13.2613 4.91786C13.4867 4.77917 13.764 4.81384 13.9374 5.00454L16.1044 7.22353C16.3991 7.51824 16.8152 7.58759 17.1792 7.39689C17.5606 7.22353 17.7513 6.84214 17.6819 6.42608L17.2139 3.37496C17.1792 3.11492 17.3179 2.85488 17.5606 2.7682C17.8206 2.66419 18.0807 2.75087 18.2367 2.97623L19.953 5.55928C20.1783 5.906 20.577 6.04469 20.9758 5.94067C21.3745 5.81932 21.6345 5.48994 21.6519 5.07388L21.7559 1.97075C21.7559 1.71071 21.9466 1.50268 22.2066 1.45067C22.4667 1.39867 22.7094 1.53735 22.8134 1.78006L24.0269 4.62315C24.1829 5.00454 24.5643 5.2299 24.963 5.19523C25.3791 5.14322 25.7085 4.86585 25.7952 4.46712L26.4539 1.43334C26.5059 1.1733 26.7313 0.999939 27.0087 0.999939C27.2687 0.999939 27.4941 1.1733 27.5461 1.43334Z" stroke="black" stroke-width="2" mask="url(#path-1-outside-1_1_1677)"/>
</svg>
